<svg xmlns="http://www.w3.org/2000/svg" version="1.1" xmlns:xlink="http://www.w3.org/1999/xlink" width="512" height="512" x="0" y="0" viewBox="0 0 128 128" style="enable-background:new 0 0 512 512" xml:space="preserve" class=""><g><ellipse cx="62.667" cy="112.362" fill="#616161" rx="47.667" ry="10.186" opacity="1" data-original="#b8cbcd" class=""></ellipse><path fill="#999999" d="m77.543 85.627-7.071 7.071c-1.456 1.456-1.938 3.662-1.588 6.212-7.66-4.063-15.36-9.726-22.454-16.818-7.093-7.094-12.755-14.794-16.819-22.454 2.55.35 4.756-.132 6.212-1.588l7.071-7.071c3.71-3.71 1.177-12.258-5.657-19.092S21.856 22.52 18.146 26.23l-7.071 7.07c-1.002 1.002-1.534 2.364-1.664 3.942-6.371 15.144 2.278 39.807 22.17 59.698 19.892 19.893 44.555 28.541 59.697 22.17 1.578-.13 2.941-.662 3.942-1.663l7.071-7.071c3.71-3.71 1.177-12.258-5.657-19.092s-15.381-9.367-19.091-5.657z" opacity="1" data-original="#b9e3ed" class=""></path><path fill="#333333" d="M80.163 124.175c-.001 0-.001 0 0 0-16.025 0-34.979-9.389-50.703-25.113C9.195 78.798-.199 53.161 6.473 36.501c.269-2.129 1.121-3.961 2.48-5.321l7.072-7.07c1.692-1.692 4.048-2.588 6.813-2.588 5.183 0 11.359 3.082 16.52 8.244 8.128 8.128 10.613 18.378 5.657 23.334l-7.07 7.071a8.482 8.482 0 0 1-3.407 2.064c3.768 6.21 8.552 12.273 14.014 17.735 5.458 5.458 11.519 10.241 17.727 14.009a8.462 8.462 0 0 1 2.072-3.402l7.071-7.071c1.692-1.692 4.048-2.587 6.813-2.587 5.183 0 11.359 3.082 16.521 8.244 3.653 3.652 6.33 7.909 7.538 11.986 1.396 4.71.728 8.739-1.881 11.348l-7.07 7.071c-1.361 1.359-3.193 2.211-5.322 2.48-3.524 1.412-7.511 2.127-11.858 2.127zM22.838 27.521c-1.155 0-2.021.279-2.571.83l-7.071 7.07c-.452.452-.719 1.147-.795 2.067a3 3 0 0 1-.225.917C6.19 52.635 15.243 76.36 33.702 94.819c14.406 14.406 32.208 23.355 46.46 23.355 3.718 0 7.067-.615 9.953-1.83.292-.122.602-.198.918-.225.92-.075 1.616-.343 2.068-.795l7.069-7.07c1.92-1.92.696-8.497-5.656-14.85-3.941-3.94-8.761-6.486-12.279-6.486-1.155 0-2.02.279-2.57.829l-7.071 7.071c-.95.95-.87 2.716-.737 3.684a2.999 2.999 0 0 1-4.378 3.057c-8.111-4.304-16.123-10.302-23.169-17.348-7.047-7.047-13.045-15.059-17.348-23.169a3.001 3.001 0 0 1 3.058-4.379c1.673.231 2.974-.027 3.684-.736l7.07-7.071c.952-.952 1.091-2.971.371-5.401-.915-3.089-3.112-6.533-6.027-9.448-3.942-3.939-8.761-6.486-12.28-6.486z" opacity="1" data-original="#324654" class=""></path><path fill="#787878" d="M83.519 120.821c-15.587.001-34.799-9.208-50.705-25.114C12.55 75.443 3.156 49.806 9.827 33.146c.269-2.13 1.121-3.961 2.48-5.321l7.304-5.088c1.171-1.172 2.965-1.267 4.137-.095 1.171 1.172 1.046 1.184-.126 2.355l-7.071 7.07c-.452.452-.719 1.147-.795 2.067a3 3 0 0 1-.225.917C9.544 49.28 18.597 73.006 37.057 91.465c18.459 18.46 42.184 27.517 56.413 21.525.292-.122.602-.198.918-.225.92-.075 1.616-.343 2.068-.795l7.069-7.07c1.172-1.172.58-.849 1.751.323 1.172 1.171 1.337 2.742.166 3.914l-4.744 7.076c-1.361 1.359-3.193 2.211-5.322 2.48-3.585 1.436-7.586 2.128-11.857 2.128z" opacity="1" data-original="#32465420" class=""></path><path fill="#ffffff" d="M39.712 56.161a2 2 0 0 1-1.414-3.414c1.233-1.233 1.46-3.564.622-6.393-.975-3.292-3.205-6.797-6.279-9.871s-6.58-5.304-9.872-6.279c-2.829-.838-5.159-.612-6.392.622a2 2 0 1 1-2.828-2.828c2.336-2.338 6.017-2.915 10.356-1.629 3.92 1.161 8.027 3.749 11.564 7.286 3.537 3.536 6.124 7.643 7.286 11.563 1.286 4.342.708 8.02-1.629 10.356-.39.392-.902.587-1.414.587zM99.109 115.558a2 2 0 0 1-1.414-3.414c1.234-1.233 1.461-3.563.623-6.393-.976-3.292-3.206-6.797-6.279-9.871-3.074-3.073-6.58-5.304-9.872-6.279-2.828-.837-5.158-.61-6.392.622a2 2 0 1 1-2.828-2.828c4.559-4.56 14.188-2.075 21.92 5.657 3.537 3.536 6.125 7.644 7.286 11.563 1.287 4.342.708 8.02-1.629 10.357-.391.39-.903.586-1.415.586z" opacity="1" data-original="#ffffff" class=""></path><g fill="#324654"><path d="M38.211 54.672c-4.76 0-10.706-2.818-15.823-7.936-3.537-3.536-6.125-7.643-7.286-11.563-1.286-4.342-.707-8.019 1.629-10.356a2 2 0 1 1 2.828 2.828c-1.233 1.233-1.461 3.563-.622 6.393.975 3.292 3.205 6.797 6.279 9.871 3.074 3.073 6.58 5.304 9.872 6.278 2.828.84 5.158.611 6.392-.622a2 2 0 1 1 2.828 2.828c-1.541 1.542-3.664 2.278-6.097 2.279zM97.609 114.068c-4.759.001-10.707-2.818-15.823-7.936-7.732-7.731-10.217-17.36-5.657-21.92a2 2 0 1 1 2.828 2.828c-1.233 1.233-1.46 3.563-.622 6.393.976 3.292 3.205 6.797 6.279 9.871 3.074 3.073 6.58 5.304 9.872 6.279 2.828.837 5.158.611 6.392-.622a2 2 0 1 1 2.828 2.828c-1.542 1.543-3.665 2.279-6.097 2.279z" fill="#333333" opacity="1" data-original="#324654" class=""></path><path d="M31.855 61.056c-1.323 0-2.755-.222-4.267-.67-3.92-1.161-8.027-3.749-11.564-7.286-7.732-7.731-10.217-17.36-5.657-21.92a2 2 0 1 1 2.828 2.828c-1.233 1.233-1.46 3.563-.622 6.393.976 3.292 3.205 6.797 6.279 9.871s6.58 5.304 9.872 6.279c2.829.838 5.159.612 6.392-.622a2 2 0 1 1 2.828 2.828c-1.522 1.522-3.614 2.299-6.089 2.299zM91.252 120.453c-1.323 0-2.754-.222-4.267-.67-3.92-1.161-8.027-3.749-11.563-7.286-3.537-3.536-6.124-7.644-7.286-11.563-1.287-4.342-.708-8.02 1.629-10.356a2 2 0 1 1 2.828 2.828c-1.233 1.233-1.46 3.563-.622 6.393.976 3.292 3.206 6.797 6.279 9.871 3.074 3.073 6.58 5.304 9.872 6.279 2.828.838 5.159.611 6.392-.623a2 2 0 0 1 2.83 2.828c-1.525 1.523-3.617 2.299-6.092 2.299zM109.812 91.678a3 3 0 0 1-2.466-4.704C113.007 78.772 116 69.159 116 59.175c0-27.019-21.981-49-49-49-10.457 0-20.44 3.257-28.872 9.418a3 3 0 1 1-3.54-4.843C44.054 7.831 55.262 4.175 67 4.175c30.327 0 55 24.673 55 55 0 11.208-3.36 21.999-9.717 31.207a2.995 2.995 0 0 1-2.471 1.296z" fill="#333333" opacity="1" data-original="#324654" class=""></path><path d="M109.682 91.679a3.004 3.004 0 0 1-2.9-2.239l-3.051-11.627a3 3 0 0 1 2.14-3.663 2.998 2.998 0 0 1 3.664 2.14l2.29 8.726 8.041-2.109a2.999 2.999 0 1 1 1.522 5.803l-10.943 2.871a3.09 3.09 0 0 1-.763.098zM72.765 69.175H55.788v-2c0-3.94 3.609-7.245 7.43-10.745 3.167-2.901 6.758-6.189 6.758-8.961 0-3.514-2.979-5.094-5.094-5.094-1.768 0-5.883.573-5.883 5.883a2 2 0 0 1-4 0c0-7.295 5.324-9.883 9.883-9.883 4.47 0 9.094 3.401 9.094 9.094 0 4.532-4.096 8.283-8.057 11.911-2.067 1.894-4.333 3.968-5.442 5.795h12.287a2 2 0 0 1 .001 4zM89 69.175a2 2 0 0 1-2-2v-6H77a1.999 1.999 0 0 1-1.691-3.068l12-19A2 2 0 0 1 91 40.175v17h4a2 2 0 0 1 0 4h-4v6a2 2 0 0 1-2 2zm-8.372-12H87V47.087z" fill="#333333" opacity="1" data-original="#324654" class=""></path><path d="M80.163 124.175c-.001 0-.001 0 0 0-16.025 0-34.979-9.389-50.703-25.113C9.195 78.798-.199 53.161 6.473 36.501c.269-2.129 1.121-3.961 2.48-5.321l7.072-7.07c1.692-1.692 4.048-2.588 6.813-2.588 5.183 0 11.359 3.082 16.52 8.244 8.128 8.128 10.613 18.378 5.657 23.334l-7.07 7.071a8.482 8.482 0 0 1-3.407 2.064c3.768 6.21 8.552 12.273 14.014 17.735 5.458 5.458 11.519 10.241 17.727 14.009a8.462 8.462 0 0 1 2.072-3.402l7.071-7.071c1.692-1.692 4.048-2.587 6.813-2.587 5.183 0 11.359 3.082 16.521 8.244 3.653 3.652 6.33 7.909 7.538 11.986 1.396 4.71.728 8.739-1.881 11.348l-7.07 7.071c-1.361 1.359-3.193 2.211-5.322 2.48-3.524 1.412-7.511 2.127-11.858 2.127zM22.838 27.521c-1.155 0-2.021.279-2.571.83l-7.071 7.07c-.452.452-.719 1.147-.795 2.067a3 3 0 0 1-.225.917C6.19 52.635 15.243 76.36 33.702 94.819c14.406 14.406 32.208 23.355 46.46 23.355 3.718 0 7.067-.615 9.953-1.83.292-.122.602-.198.918-.225.92-.075 1.616-.343 2.068-.795l7.069-7.07c1.92-1.92.696-8.497-5.656-14.85-3.941-3.94-8.761-6.486-12.279-6.486-1.155 0-2.02.279-2.57.829l-7.071 7.071c-.95.95-.87 2.716-.737 3.684a2.999 2.999 0 0 1-4.378 3.057c-8.111-4.304-16.123-10.302-23.169-17.348-7.047-7.047-13.045-15.059-17.348-23.169a3.001 3.001 0 0 1 3.058-4.379c1.673.231 2.974-.027 3.684-.736l7.07-7.071c.952-.952 1.091-2.971.371-5.401-.915-3.089-3.112-6.533-6.027-9.448-3.942-3.939-8.761-6.486-12.28-6.486z" fill="#333333" opacity="1" data-original="#324654" class=""></path></g></g></svg>